<?xml version="1.0" encoding="utf-8"?>
<!-- Generator: Adobe Illustrator 16.0.0, SVG Export Plug-In . SVG Version: 6.00 Build 0)  -->
<!DOCTYPE svg PUBLIC "-//W3C//DTD SVG 1.1//EN" "http://www.w3.org/Graphics/SVG/1.1/DTD/svg11.dtd">
<svg version="1.1" xmlns="http://www.w3.org/2000/svg" xmlns:xlink="http://www.w3.org/1999/xlink" x="0px" y="0px" width="993px"
	 height="54px" viewBox="0 0 993 54" enable-background="new 0 0 993 54" xml:space="preserve">
	
<g id="Layer_1">
	<rect fill="#939598" stroke="#231F20" stroke-miterlimit="10" width="993" height="54"/>
	
</g>
<g id="Layer_2">
	<text transform="matrix(1 0 0 1 20 35.1475)" fill="#FFFFFF" font-family="'Oswald-Bold'" font-size="18">THE TOWN</text>
	<text transform="matrix(1 0 0 1 109.5151 38.4727)" font-family="'Lato-Hairline'" font-size="36">|</text>
	<text transform="matrix(1 0 0 1 140 32.6934)" font-family="'Lato-Light'" font-size="14">PREVIOUS</text>
	<text transform="matrix(1 0 0 1 223 32.6953)" font-family="'Lato-Light'" font-size="14">NEXT</text>
	<text transform="matrix(1 0 0 1 292.5151 38.4727)" font-family="'Lato-Hairline'" font-size="36">|</text>
</g>
<g id="Layer_3">
	<text transform="matrix(1 0 0 1 337 32.6953)"><tspan x="0" y="0" font-family="'Lato-Light'" font-size="14">I:</tspan><tspan x="7.511" y="0" font-family="'Lato-Hairline'" font-size="14"> </tspan><tspan x="10.213" y="0" font-family="'Lato-Light'" font-size="14">BEFORE THE FALL</tspan></text>
</g>
<g id="Layer_4">
	<text transform="matrix(1 0 0 1 503 32.6953)"><tspan x="0" y="0" font-family="'Lato-Light'" font-size="14">II: </tspan><tspan x="14.398" y="0" font-family="'Lato-Hairline'" font-size="14">T</tspan><tspan x="22.518" y="0" font-family="'Lato-Light'" font-size="14">HE AGREEMENT</tspan></text>
</g>
<g id="Layer_5">
	<text transform="matrix(1 0 0 1 668 32.6943)"><tspan x="0" y="0" font-family="'Lato-Light'" font-size="14">III:</tspan><tspan x="15.883" y="0" font-family="'Lato-Hairline'" font-size="14"> </tspan><tspan x="18.586" y="0" font-family="'Lato-Light'" font-size="14">THE LAWSUIT</tspan></text>
</g>
<g id="Layer_6">
	<a xlink:href="../part-four_main.html" title="part-four_main" data-transition="fadeInOut" target="_top">
	<text transform="matrix(1 0 0 1 810 32.6953)" font-family="'Lato-Light'" font-size="14">IV: THE RECKONING</text>
	</a>
</g>
<g id="Layer_7">
		
	<a xlink:href="../part-three_main.html" title="part-three_main" data-transition="fadeInOut">
	<rect x="660" y="5" width="140" height="140" rx="5" ry="5" style="fill:black; opacity:0"></rect>
	</a>
	<a xlink:href="../part-two_main.html" title="part-two_main" data-transition="fadeInOut">
	<rect x="500" y="5" width="140" height="140" rx="5" ry="5" style="fill:black; opacity:0"></rect>
	</a>
	<a xlink:href="../part-one_main.html" title="part-one_main" data-transition="fadeInOut">
	<rect x="330" y="5" width="140" height="140" rx="5" ry="5" style="fill:black; opacity:0"></rect>
	</a>
	<a xlink:href="#" data-transition="fadeInOut">
	<rect x="220" y="5" width="50" height="140" rx="5" ry="5" style="fill:black; opacity:0"></rect>
	</a>
	<a xlink:href="#" data-transition="fadeInOut">
	<rect x="130" y="5" width="80" height="140" rx="5" ry="5" style="fill:black; opacity:0"></rect>
	</a>
	<a xlink:href="../index_CK.html" title="index_CK" data-transition="fadeInOut">
	<rect x="15" y="5" width="80" height="140" rx="5" ry="5" style="fill:black; opacity:0"></rect>
	</a>
</g>	
</svg>
