<?xml version="1.0" encoding="utf-8"?>
<!-- Generator: Adobe Illustrator 16.0.0, SVG Export Plug-In . SVG Version: 6.00 Build 0)  -->
<!DOCTYPE svg PUBLIC "-//W3C//DTD SVG 1.1//EN" "http://www.w3.org/Graphics/SVG/1.1/DTD/svg11.dtd">
<svg version="1.1" xmlns="http://www.w3.org/2000/svg" xmlns:xlink="http://www.w3.org/1999/xlink" x="0px" y="0px" width="993px"
	 height="54px" viewBox="0 0 993 54" enable-background="new 0 0 993 54" xml:space="preserve">
<g id="Layer_1">
	<rect fill="#939598" stroke="#231F20" stroke-miterlimit="10" width="993" height="54"/>
</g>
<g id="Layer_2">
	<text transform="matrix(1 0 0 1 20 35.1475)" fill="#FFFFFF" font-family="'Oswald-Bold'" font-size="18">THE TOWN</text>
	<text transform="matrix(1 0 0 1 111.5151 47.4727)" font-family="'Lato-Hairline'" font-size="18">|</text>
	<text transform="matrix(1 0 0 1 328.8481 46.4727)" font-family="'Lato-Hairline'" font-size="18">|</text>
	<text transform="matrix(1 0 0 1 548.8486 46.4727)" font-family="'Lato-Hairline'" font-size="18">|</text>
	<text transform="matrix(1 0 0 1 768.0986 46.3379)" font-family="'Lato-Hairline'" font-size="18">|</text>
</g>
<g id="Layer_7">
	<line x1="114.502" y1="49.667" x2="993.832" y2="49.667"/>
</g>
<g id="Layer_3">
	<text transform="matrix(1 0 0 1 159 32.6943)" fill="#231F20" font-family="'Lato-Light'" font-size="14">I: BEFORE THE FALL</text>
</g>
<g id="Layer_8">
	<polygon fill="#ED1C24" points="215.34,53.973 224,38.973 232.66,53.973 	"/>
</g>
<g id="Layer_4">
	<text transform="matrix(1 0 0 1 376.9995 32.6934)" font-family="'Lato-Light'" font-size="14">II: THE AGREEMENT</text>
</g>
<g id="Layer_5">
	<text transform="matrix(1 0 0 1 606 32.6934)" font-family="'Lato-Light'" font-size="14">III: AT ALL COSTS</text>
</g>
<g id="Layer_6">
	<text transform="matrix(1 0 0 1 810 32.6953)" font-family="'Lato-Light'" font-size="14">IV: THE RECKONING</text>
</g>
</svg>
