<?xml version="1.0" encoding="utf-8"?>
<!-- Generator: Adobe Illustrator 16.0.0, SVG Export Plug-In . SVG Version: 6.00 Build 0)  -->
<!DOCTYPE svg PUBLIC "-//W3C//DTD SVG 1.1//EN" "http://www.w3.org/Graphics/SVG/1.1/DTD/svg11.dtd">
<svg version="1.1" id="Layer_1" xmlns="http://www.w3.org/2000/svg" xmlns:xlink="http://www.w3.org/1999/xlink" x="0px" y="0px"
	 width="594.197px" height="594.193px" viewBox="2.834 -496.5 594.197 594.193"
	 enable-background="new 2.834 -496.5 594.197 594.193" xml:space="preserve">
<path fill="#FFFFFF" d="M299.931-496.5c-164.08,0-297.097,133.017-297.097,297.102c0,164.08,133.017,297.091,297.097,297.091
	c164.081,0,297.101-133.012,297.101-297.091C597.031-363.483,464.012-496.5,299.931-496.5z M298.903,60.536
	c-143.562,0-259.938-116.381-259.938-259.934s116.376-259.934,259.938-259.934c143.554,0,259.939,116.376,259.939,259.934
	C558.843-55.845,442.457,60.536,298.903,60.536z"/>
<polygon fill="#FFFFFF" points="238.332,-69.819 248.65,-62.917 360.623,-197.464 352.366,-205.327 "/>
<polygon fill="#FFFFFF" points="357.64,-199.498 347.534,-192.289 231.646,-323.483 239.68,-331.585 "/>
</svg>
